<?xml version="1.0" encoding="UTF-8"?>
<svg width="16px" height="16px" viewBox="0 0 16 16" version="1.1" xmlns="http://www.w3.org/2000/svg" xmlns:xlink="http://www.w3.org/1999/xlink">
    <!-- Generator: Sketch 43.2 (39069) - http://www.bohemiancoding.com/sketch -->
    <title>safari-pinned-tab</title>
    <desc>Created with Sketch.</desc>
    <defs></defs>
    <g id="Favicon" stroke="none" stroke-width="1" fill="none" fill-rule="evenodd">
        <g id="safari-pinned-tab" fill="#000000">
            <path d="M12.9654471,7.1372549 C12.9654471,7.1372549 13.0521782,7.17866667 13.01824,7.23137255 L9.43665461,12.7291114 C9.40271635,12.7818173 9.37254902,12.8759349 9.37254902,12.9361702 L9.37254902,15.8870588 C9.37254902,15.9472941 9.31975618,16 9.25942152,16 L6.74057848,16 C6.68024382,16 6.62745098,15.9472941 6.62745098,15.8870588 L6.62745098,12.9361702 C6.62745098,12.8721702 6.59728365,12.7818173 6.56334539,12.7291114 L2.97044729,7.23137255 C2.93650904,7.17866667 2.95536362,7.1372549 3.01946921,7.1372549 L5.96078431,7.1372549 C6.02111898,7.1372549 6.10030824,7.18243137 6.13047557,7.23513725 L7.94532171,10.3077647 C7.97925996,10.3604706 8.02828188,10.3604706 8.06222013,10.3077647 L9.86575351,7.23513725 C9.89969176,7.18243137 9.9751101,7.1372549 10.0392157,7.1372549 L12.9654471,7.1372549 Z M11.5729437,10.7557647 C11.5955692,10.7407059 11.6408202,10.7294118 11.7049258,10.7294118 C13.0021211,10.7256471 12.7871789,11.9717647 12.7306151,12.4235294 C12.2894179,12.3143529 11.0412444,12.0809412 11.5012963,10.8687059 C11.5276927,10.816 11.5503182,10.7708235 11.5729437,10.7557647 Z M4.29507424,10.7294118 C4.36295074,10.7294118 4.40443083,10.7407059 4.42705633,10.7557647 C4.44591091,10.7708235 4.47230733,10.816 4.49493283,10.8687059 C4.95498468,12.0809412 3.70681122,12.3143529 3.26561395,12.4235294 C3.21282112,11.9717647 2.99787886,10.7256471 4.29507424,10.7294118 Z M12.2630214,9.63764706 C12.2667924,9.59247059 12.3007306,9.52847059 12.372378,9.44564706 C13.7600754,7.83058824 14.9479142,9.50588235 15.4079661,10.0818824 C14.8083903,10.5072941 13.2019797,11.7872941 12.3158143,9.85223529 C12.281876,9.76564706 12.2554796,9.67905882 12.2630214,9.63764706 Z M3.74074947,9.63388235 C3.7482913,9.67529412 3.72189489,9.76188235 3.68795663,9.84847059 C2.80179119,11.7835294 1.19538063,10.5072941 0.595804855,10.0781176 C1.05208579,9.50588235 2.23992458,7.83058824 3.63139288,9.44188235 C3.69926938,9.52470588 3.73320764,9.59247059 3.74074947,9.63388235 Z M13.5451332,7.81552941 C13.5451332,7.78164706 13.5602168,7.72894118 13.597926,7.66117647 C14.3709639,6.29082353 15.5588027,7.26588235 16,7.59717647 C15.6229083,7.99623529 14.6273863,9.16705882 13.6243224,7.95858824 C13.5828423,7.90211765 13.5489041,7.84564706 13.5451332,7.81552941 Z M2.45486684,7.81176471 C2.45109592,7.84188235 2.41715767,7.89835294 2.37567759,7.95482353 C1.37261372,9.16705882 0.37709168,7.99623529 -5.59434189e-14,7.58964706 C0.441197266,7.26211765 1.62903606,6.28705882 2.402074,7.65741176 C2.44355409,7.72894118 2.45863776,7.78164706 2.45486684,7.81176471 Z M12.4817346,6.14776471 C12.46288,6.11011765 12.4515673,6.03858824 12.4591091,5.92941176 C12.6137167,3.80988235 14.5670516,4.44988235 15.2722131,4.63811765 C15.045958,5.33458824 14.5180297,7.31858824 12.6514259,6.28705882 C12.5722366,6.23811765 12.5005892,6.18541176 12.4817346,6.14776471 Z M3.51826538,6.15152941 C3.49941079,6.18917647 3.42776337,6.23811765 3.34857412,6.29082353 C1.4819703,7.31858824 0.954041951,5.33835294 0.724016026,4.64188235 C1.43294839,4.44988235 3.38251237,3.80988235 3.54089088,5.93317647 C3.54843271,6.03858824 3.53711996,6.11388235 3.51826538,6.15152941 Z M12.2856469,4.18258824 C12.2177704,4.17882353 12.1536649,4.17129412 12.1272684,4.15247059 C12.1046429,4.13741176 12.0744756,4.09223529 12.0443083,4.01317647 C11.4862126,2.54494118 12.9983502,2.26258824 13.5338204,2.13082353 C13.597926,2.67670588 13.8581193,4.19011765 12.2856469,4.18258824 Z M3.87273156,4.15623529 C3.84633514,4.17129412 3.78222955,4.18258824 3.71435305,4.18635294 C2.13810983,4.19388235 2.402074,2.68047059 2.46617959,2.13835294 C3.00164978,2.26635294 4.5100165,2.54870588 3.95569173,4.02070588 C3.92929531,4.09223529 3.89912798,4.13741176 3.87273156,4.15623529 Z M7.99434362,2.92517647 C7.95663446,2.92517647 7.88121612,2.89129412 7.80579778,2.84988235 C6.15036531,1.792 7.53052086,0.489411765 7.99434362,2e-16 C8.46193731,0.489411765 9.84209286,1.78823529 8.18288947,2.84988235 C8.0999293,2.90258824 8.03205279,2.92517647 7.99434362,2.92517647 Z M10.1588499,3.712 C10.0834315,3.72329412 10.0117841,3.73082353 9.97784586,3.71952941 C9.94767853,3.70823529 9.90242753,3.66682353 9.84963469,3.59529412 C8.84657082,2.14588235 10.4152722,1.43058824 10.9620551,1.14447059 C11.1807683,1.72047059 11.8708461,3.29411765 10.1588499,3.712 Z M6.02215414,3.71952941 C5.98821588,3.73458824 5.91656847,3.72705882 5.84115013,3.712 C4.1291539,3.29411765 4.82300259,1.72047059 5.03794485,1.14070588 C5.58472779,1.42682353 7.15342918,2.14211765 6.15036531,3.59152941 C6.10134339,3.66682353 6.05609239,3.70823529 6.02215414,3.71952941 Z M7.85104879,5.78258824 C6.55385341,4.89411765 7.63233561,3.79858824 7.99811454,3.38823529 C8.36389347,3.79858824 9.44237568,4.89411765 8.1451803,5.78258824 C8.08107471,5.82776471 8.02828188,5.84658824 7.99811454,5.84658824 C7.96794721,5.84658824 7.91138346,5.81647059 7.85104879,5.78258824 Z M9.9401367,6.71623529 C9.84586378,6.70870588 9.75536177,6.69364706 9.72142352,6.67105882 C9.68371435,6.64847059 9.63846335,6.58823529 9.60075418,6.49035294 C8.74475607,4.54023529 10.7697384,4.19764706 11.4862126,4.03576471 C11.6106528,4.75482353 12.0707047,6.75764706 9.9401367,6.71623529 Z M7.99434362,8.68517647 C7.96417629,8.68517647 7.90761254,8.65505882 7.84727787,8.62117647 C6.55008249,7.72894118 7.63233561,6.63717647 7.99434362,6.22682353 C8.36012255,6.63717647 9.43860476,7.72894118 8.14140938,8.62117647 C8.07730379,8.66635294 8.02451096,8.68517647 7.99434362,8.68517647 Z M6.2823474,6.67105882 C6.24463823,6.69364706 6.15790714,6.70870588 6.06363422,6.71623529 C3.93306623,6.75764706 4.39311808,4.75858824 4.52132925,4.03576471 C5.23780344,4.19764706 7.26278576,4.54023529 6.40678765,6.49035294 C6.36153665,6.58823529 6.31628565,6.64847059 6.2823474,6.67105882 Z" id="Logo"></path>
        </g>
    </g>
</svg>